<svg width="32" height="32" viewBox="0 0 32 32" fill="none" xmlns="http://www.w3.org/2000/svg">
  <rect width="32" height="32" rx="8" fill="#3FA174"/>
  <path d="M16 4C16 4 14 7.33 14 9.33C14 11.33 15.33 12.67 16 13.33C16.67 12.67 18 11.33 18 9.33C18 7.33 16 4 16 4Z" fill="white"/>
  <path d="M16 13.33C16 13.33 10.67 10.67 7.33 12C4 13.33 2.67 17.33 2.67 17.33C2.67 17.33 6.67 18 9.33 16.67C12 15.33 13.33 14 16 13.33Z" fill="white"/>
  <path d="M16 13.33C16 13.33 21.33 10.67 24.67 12C28 13.33 29.33 17.33 29.33 17.33C29.33 17.33 25.33 18 22.67 16.67C20 15.33 18.67 14 16 13.33Z" fill="white"/>
  <path d="M16 17.33C16 17.33 9.33 16 5.33 18.67C1.33 21.33 1.33 26.67 1.33 26.67C1.33 26.67 6.67 25.33 10.67 22.67C14.67 20 16 17.33 16 17.33Z" fill="white"/>
  <path d="M16 17.33C16 17.33 22.67 16 26.67 18.67C30.67 21.33 30.67 26.67 30.67 26.67C30.67 26.67 25.33 25.33 21.33 22.67C17.33 20 16 17.33 16 17.33Z" fill="white"/>
  <path d="M16 13.33V30" stroke="white" stroke-width="2.5" stroke-linecap="round"/>
</svg>
