<?xml version="1.0" encoding="UTF-8"?>
<svg xmlns="http://www.w3.org/2000/svg" version="1.1" viewBox="0 0 64 32">
  <defs>
    <style>
      .st0 {
        fill: none;
      }

      .st1 {
        fill: #38840e;
      }

      .st2 {
        fill: #efda1d;
      }

      .st3 {
        fill: #5ca917;
      }
    </style>
  </defs>
  <g id="Camada_1">
    <g>
      <path class="st2" d="M31.8,18.9l-2.6-4.4c-2.3-5-1.1-9.3,2.5-13.2,1.9,2.1,3.6,5.1,3.7,8,0,2-.8,4.4-1.7,6.2-.6,1.1-1.7,2.1-2,3.4Z"/>
      <path class="st3" d="M40.5,12.3c-.7,4.5-4,7.8-8.4,8.8,1-4.2,4.2-7.6,8.4-8.8Z"/>
      <path class="st3" d="M31.3,21c-4.3-1-7.6-4.3-8.2-8.8,4,1.1,7.5,4.7,8.2,8.8Z"/>
      <path class="st1" d="M34.4,21.3c3.6,0,6.9-1.5,9.7-3.7,1.5.2,3,.7,4.2,1.5-3.2,2.9-8,3.7-12.2,2.9s-1.4-.3-1.7-.6Z"/>
      <path class="st2" d="M45.9,11c-.8,4.5-4.3,8.2-8.9,8.9,2.5-2.1,4.5-5,4.5-8.4l4.5-.5Z"/>
      <path class="st1" d="M29.1,21.3c-.2.3-.8.4-1.1.4-4.1,1-9.8.4-12.8-2.9,1-.4,3.2-1.5,4.3-1.4s2,1.5,2.5,1.7c2.2,1.3,4.7,2,7.2,2.1Z"/>
      <path class="st2" d="M22,11.6c.3,3.4,2,6.2,4.6,8.4-4.6-.8-8.1-4.3-8.9-8.9l4.3.6Z"/>
      <path class="st3" d="M27.7,13.3l-4.5-2.3c-.3-.6-.1-4.9.4-5.2,1.3.2,2.5.8,3.6,1.6.2.4,0,1,0,1.4,0,1.5,0,3.1.5,4.5Z"/>
      <path class="st3" d="M40.3,11.2c-.7.3-1.6.6-2.2.9s-2.1,1.3-2.2,1.2c.7-1.9.7-4,.3-5.9,1.2-.7,2.4-1.4,3.8-1.6.6,1.7.4,3.5.4,5.3Z"/>
    </g>
  </g>
  <g id="Camada_2">
    <g>
      <path class="st0" d="M22.7,25.8v2.1c.9,0,2.3.2,2.3-1,0-1.3-1.4-1-2.3-1Z"/>
      <path class="st0" d="M11.3,25.9l-1,2.4v.2h1.9c0-.3-.8-2.7-.9-2.7Z"/>
      <path class="st0" d="M16.6,25.5v1.7c3.2.4,3.2-2.1,0-1.7Z"/>
      <polygon class="st0" points="28.9 28.6 30.7 28.6 29.8 25.9 28.9 28.6"/>
      <path class="st0" d="M18.7,28.2h-2.1v1.6h2c.2,0,.7-.5.7-.8,0-.2-.4-.8-.5-.8Z"/>
      <path class="st0" d="M40.8,26l-.7,2.6h1.6c0,0-.4-1.6-.5-1.8,0-.2-.2-.7-.4-.8Z"/>
      <path d="M28.9,24.6c-.8,1.9-1.2,4-2.1,5.8,0,.1-.1.3-.3.3l-1.4-2c2-1,1.4-3.8-.8-4.1-.9-.1-2.1,0-3,0v6.2c.3.3.9.1,1.3.2v-1.8c1.3-.9,1.7,1,2.4,1.8h3c0-.1.4-1.3.4-1.3h2.5c0,0,.6,1.2.6,1.2h1.5c0,0-2.3-6.2-2.3-6.2h-1.8ZM22.7,27.9v-2.1c.9,0,2.3-.3,2.3,1,0,1.3-1.4,1-2.3,1ZM28.9,28.6l.9-2.7.9,2.7h-1.8Z"/>
      <path d="M54.4,24.6c-.5,1.1-.8,2.5-1.3,3.6,0,.1-.1.3-.3.4l-1.5-4h-1.4s0,6.1,0,6.1c.2.2.4.2.7.2s.3,0,.5,0l.2-.2v-3.4c0,0-.4-.5,0-.2l1.4,3.6c.1.2.5,0,.6-.1l1.4-3.6v3.7c.2.2.4.2.7.2s.3,0,.5,0l.2-.2v-6.2h-1.6Z"/>
      <path d="M19.4,27.6c.2-.3.5-.4.7-.7.8-1.4-.7-2.2-1.9-2.4-.9,0-2,0-3,0v6.2h3.8c.1,0,.9-.4,1-.5.9-.8.5-2.4-.7-2.6ZM16.6,25.5c3.2-.4,3.2,2.1,0,1.7v-1.7ZM18.6,29.8h-2v-1.6h2.1c.1,0,.5.6.5.8,0,.3-.4.8-.7.8Z"/>
      <path d="M47.9,28.5c-.2,0-.3-.3-.4-.5-.4-.5-1.7-3.1-2-3.3-.3-.2-1,0-1.4-.1v6.2h1.3v-4l2.3,4h1.4c0,.1,0-6.2,0-6.2h-1.3v3.9Z"/>
      <path d="M10.4,24.6l-2.3,6.3c1.8.3,1.2-.3,1.8-1.1,0,0,0-.2.2-.2h2.6s.4,1.3.4,1.3h1.6s-2.5-6.3-2.5-6.3h-1.8ZM12.2,28.6h-1.8v-.2c-.1,0,.9-2.4.9-2.4.1,0,1,2.4.9,2.7Z"/>
      <path d="M40.1,24.6c-.4.2-1.6,5.5-2.2,6,.1.5.9.5,1.3.3.3,0,.5-1,.6-1.3h2.2s.5,1.2.5,1.2h1.4s-2.2-6.1-2.2-6.1h-1.6ZM41.7,28.6h-1.6l.7-2.6c.2,0,.3.6.4.8,0,.2.6,1.7.5,1.8Z"/>
      <path d="M37.5,26c1.2-1.4-.6-1.6-1.7-1.5-3,.3-3.8,4.4-1.4,5.9.9.5,2.7.8,3.5,0,0-.4-.1-.7-.2-1.1-4.2,2-4.5-5.1-.2-3.4Z"/>
    </g>
  </g>
</svg>
