<?xml version="1.0" encoding="UTF-8"?>
<svg id="Camada_1" data-name="Camada 1" xmlns="http://www.w3.org/2000/svg" viewBox="0 0 60.19 14.36">
  <g>
    <path d="M11.39,12.04l-1.78-2.99c-1.56-3.44-.73-6.35,1.73-9.05,1.3,1.46,2.5,3.5,2.55,5.51.04,1.34-.53,3.05-1.16,4.22-.42.77-1.14,1.45-1.35,2.31Z" style="fill: #efda1d;"/>
    <path d="M17.32,7.5c-.5,3.07-2.72,5.37-5.74,6.02.69-2.88,2.88-5.24,5.74-6.02Z" style="fill: #5ca917;"/>
    <path d="M11.02,13.52c-2.95-.71-5.23-2.97-5.65-6.02,2.74.76,5.15,3.2,5.65,6.02Z" style="fill: #5ca917;"/>
    <path d="M13.16,13.71c2.45-.06,4.75-1.04,6.63-2.57,1.02.13,2.04.47,2.91,1.04-2.19,2.02-5.5,2.52-8.36,1.97-.33-.06-.95-.22-1.18-.44Z" style="fill: #38840e;"/>
    <path d="M21.03,6.67c-.56,3.11-2.94,5.65-6.11,6.11,1.75-1.43,3.06-3.41,3.06-5.74l3.05-.37Z" style="fill: #efda1d;"/>
    <path d="M9.54,13.71c-.12.22-.52.25-.76.31-2.83.67-6.73.24-8.78-1.97.71-.24,2.18-1.06,2.91-.93.14.03,1.38,1,1.69,1.19,1.49.88,3.2,1.34,4.94,1.41Z" style="fill: #38840e;"/>
    <path d="M4.62,7.05c.2,2.35,1.37,4.27,3.16,5.74-3.18-.52-5.53-2.97-6.11-6.11l2.96.38Z" style="fill: #efda1d;"/>
    <path d="M8.52,8.24l-3.06-1.55c-.21-.4-.07-3.37.27-3.6.9.15,1.73.54,2.46,1.07.16.28-.04.66-.05.97-.03,1.06,0,2.1.37,3.11Z" style="fill: #5ca917;"/>
    <path d="M17.22,6.75c-.49.19-1.07.4-1.53.64-.17.09-1.45.91-1.51.85.45-1.31.48-2.71.2-4.06.81-.47,1.64-.94,2.59-1.09.44,1.18.28,2.43.26,3.65Z" style="fill: #5ca917;"/>
  </g>
  <g>
    <path d="M34.9,5.69v1.57c.67,0,1.77.17,1.77-.79,0-1.02-1.06-.77-1.77-.79Z" style="fill: none;"/>
    <path d="M26.23,5.78l-.75,1.85.1.19h1.34c.03-.25-.59-2.04-.69-2.04Z" style="fill: none;"/>
    <path d="M30.26,5.5v1.3c2.4.3,2.46-1.62,0-1.3Z" style="fill: none;"/>
    <polygon points="39.62 7.82 41.01 7.82 40.32 5.78 39.62 7.82" style="fill: none;"/>
    <path d="M31.88,7.54h-1.62v1.2h1.53c.16,0,.5-.4.5-.6,0-.15-.32-.6-.41-.6Z" style="fill: none;"/>
    <path d="M48.7,5.87l-.56,1.94h1.2c.05-.05-.32-1.18-.37-1.34-.05-.17-.11-.53-.28-.6Z" style="fill: none;"/>
    <path d="M39.63,4.77c-.61,1.41-.91,3.01-1.58,4.4-.05.1-.08.26-.24.22l-1.07-1.53c1.54-.76,1.1-2.88-.6-3.11-.69-.09-1.56.07-2.27,0v4.68c.24.26.69.1,1.02.14v-1.34c1.01-.65,1.26.79,1.83,1.34l2.28-.09.33-.87,1.9-.04.43.96,1.12.04-1.76-4.77-1.38-.03ZM34.9,7.26v-1.57c.71.02,1.77-.23,1.77.79,0,.95-1.1.79-1.77.79ZM39.62,7.82l.69-2.04.69,2.04h-1.39Z"/>
    <path d="M58.99,4.77c-.35.87-.59,1.94-.98,2.77-.05.11-.09.25-.23.28l-1.13-3.04-1.1-.02v4.68c.12.18.32.14.51.14.12,0,.24,0,.36-.02l.15-.12v-2.59s-.33-.37.05-.14l1.06,2.72c.11.14.4.07.46-.1l1.03-2.72v2.83c.12.18.32.14.51.14.12,0,.24,0,.36-.02l.15-.12v-4.68h-1.19Z"/>
    <path d="M32.4,7.08c.15-.2.4-.27.54-.52.59-1.05-.5-1.7-1.42-1.79-.72-.08-1.54.06-2.27,0v4.72h2.92c.1,0,.69-.31.79-.41.69-.64.4-1.86-.56-2ZM30.26,5.5c2.46-.32,2.4,1.6,0,1.3v-1.3ZM31.79,8.75h-1.53v-1.2h1.62c.09,0,.41.45.41.6,0,.2-.34.6-.5.6Z"/>
    <path d="M54.07,7.73c-.16-.05-.23-.25-.32-.38-.27-.41-1.29-2.36-1.48-2.5-.25-.18-.76-.04-1.07-.09v4.72h1.02v-3.06l1.77,3.04,1.1.11v-4.82h-1.02v2.96Z"/>
    <path d="M25.55,4.78l-1.77,4.8c1.39.19.94-.24,1.4-.87.04-.06.07-.11.15-.13h1.97s.3.99.3.99h1.19s-1.87-4.79-1.87-4.79h-1.36ZM26.93,7.82h-1.34l-.1-.19.75-1.85c.11,0,.72,1.78.69,2.04Z"/>
    <path d="M48.16,4.78c-.3.18-1.23,4.16-1.68,4.52.08.37.66.36.96.26.21-.07.38-.77.44-.99l1.69-.02.35.92h1.1s-1.67-4.67-1.67-4.67l-1.19-.03ZM49.35,7.82h-1.2l.56-1.94c.16.07.22.43.28.6.05.16.42,1.3.37,1.34Z"/>
    <path d="M46.15,5.86c.87-1.09-.44-1.2-1.3-1.1-2.27.25-2.91,3.36-1.04,4.47.66.39,2.03.58,2.66.07-.06-.28-.11-.56-.19-.83-3.15,1.52-3.4-3.86-.14-2.6Z"/>
  </g>
</svg>
